<svg xmlns="http://www.w3.org/2000/svg" xmlns:xlink="http://www.w3.org/1999/xlink" width="32" height="32"><defs><linearGradient id="a"><stop offset="0" stop-color="#000092"/><stop offset="1" stop-color="#ff00f3"/></linearGradient><linearGradient id="b" x1=".999" x2="29" y1="16.185" y2="16.185" gradientUnits="userSpaceOnUse" xlink:href="#a"/></defs><path style="text-indent:0;text-align:start;line-height:normal;text-transform:none;block-progression:tb;marker:none;-inkscape-font-specification:Sans" fill="url(#b)" d="M12.938 4.375a.51.51 0 0 0-.313.375L10.687 12H1.5a.5.5 0 0 0-.156 0 .515.515 0 0 0-.344.5v15c0 .262.238.5.5.5h21a.52.52 0 0 0 .5-.5v-7.063l4.281 1.157a.519.519 0 0 0 .594-.344L31 9.656a.52.52 0 0 0-.375-.594L13.25 4.407a.503.503 0 0 0-.25-.031.501.501 0 0 0-.063 0zm.53 1.094 16.438 4.437-2.875 10.625L23 19.438v-1.063l2.688.75a.5.5 0 0 0 .03 0c.056.014.111.02.157.031a.519.519 0 0 0 .594-.343l.062-.188 1.094-4.188a.505.505 0 0 0-.031-.343l-.469-1.031c-.316-.547-.37-.59-.906-.282L24.344 14 22.5 10.375c-.249-.431-.565-.483-.969-.25L18.688 12h-6.97zm1.563 1.593c-.58.077-1.092.474-1.25 1.063-.21.785.277 1.602 1.063 1.813a1.476 1.476 0 0 0 .781-2.844 1.53 1.53 0 0 0-.594-.032zm.125 1c.063-.008.122-.017.188 0a.48.48 0 0 1 .344.594.48.48 0 0 1-.594.344.48.48 0 0 1-.344-.594.472.472 0 0 1 .406-.344zm6.625 3.094.438.844H20.5zM2 13h20v4.75a.506.506 0 0 0 0 .094v1.968a.506.506 0 0 0 0 .094V27H2zm21 .563.688 1.374a.522.522 0 0 0 .75.188l1.968-1.281.219.531-.969 3.688-2.656-.72zM5.969 15.5c-.813 0-1.469.656-1.469 1.469 0 .813.655 1.5 1.469 1.5.814 0 1.5-.687 1.5-1.5S6.78 15.5 5.969 15.5zm0 1c.273 0 .5.196.5.469 0 .272-.228.5-.5.5s-.469-.228-.469-.5c0-.273.195-.469.469-.469zm6.562.344a.487.487 0 0 0-.031.031l-5.781 6.438a.5.5 0 0 0 0 .03.5.5 0 0 0-.032 0v.032a.5.5 0 0 0-.03 0c-.006.01.003.027 0 .031-.007.01-.032 0-.032 0-.006.01 0 .032 0 .032a.5.5 0 0 0-.063.125s-.062.138-.062.28c0 .324.34.657.656.657H19a.52.52 0 0 0 .5-.5v-4.531a.505.505 0 0 0-.125-.313l-.719-.875c-.282-.282-.543-.488-.968-.062l-1.5 1.687-2.688-3.031c-.41-.41-.614-.386-.969-.031zm.469.968 2.813 3.157a.522.522 0 0 0 .75 0l1.593-1.75.344.406V23.5H7.906z" color="#000" font-family="Sans" font-weight="400" overflow="visible"/></svg>