<svg xmlns="http://www.w3.org/2000/svg" data-name="Layer 1" viewBox="0 0 40 40"><path fill="#231f20" d="M35.85 19.22a1 1 0 0 0-1 1v.32a21.92 21.92 0 0 0-10.61-.09c-.57-1.36-1.17-2.66-1.79-3.91a22.38 22.38 0 0 0 9-5.91 14.91 14.91 0 0 1 1.78 2.73 1 1 0 1 0 1.77-.91 17.13 17.13 0 1 0-27.23 20 1 1 0 0 0 .28.33.78.78 0 0 0 .2.11 17.1 17.1 0 0 0 28.6-12.67 1 1 0 0 0-1-1ZM30.06 9.15a20.28 20.28 0 0 1-8.53 5.61 82.63 82.63 0 0 0-5.64-9.17 15 15 0 0 1 14.17 3.56ZM13.9 6.25a78.34 78.34 0 0 1 5.69 9.18 55 55 0 0 1-14.76 2.16A15.2 15.2 0 0 1 13.9 6.25Zm-9.31 14v-.63a56.24 56.24 0 0 0 15.89-2.38c.6 1.21 1.19 2.48 1.74 3.8a32.55 32.55 0 0 0-13.61 9.41 15 15 0 0 1-4.02-10.23Zm5.46 11.62a30.32 30.32 0 0 1 13-9 41.67 41.67 0 0 1 2.74 11.22 15.07 15.07 0 0 1-15.7-2.25Zm17.59 1.24A44.34 44.34 0 0 0 25 22.33a20.12 20.12 0 0 1 9.69.23 15.13 15.13 0 0 1-7.05 10.52Z"/><path fill="#231f20" d="M34.26 16a1 1 0 1 0 1-1 1 1 0 0 0-1 1Z"/></svg>